<svg viewBox="0 0 295 185" xmlns="http://www.w3.org/2000/svg">
	<defs></defs>
	<rect width="100%" height="100%" fill="white"/>
	<g transform="matrix(1, 0, 0, 1, -215, -75)">
		<defs>
			<path id="SVGID_1_" d="M318.284,161.619c-22.325,17.404-26.33,49.718-8.932,72.047c9.795,12.568,24.564,19.776,40.519,19.776
			c11.518,0,22.417-3.745,31.519-10.845c10.797-8.413,17.677-20.554,19.371-34.173c1.689-13.623-2.015-27.076-10.432-37.871
			c-2.172-2.789-4.634-5.355-7.312-7.625c-0.563-0.485-1.283-0.748-2.019-0.748c-0.996,0-1.943,0.485-2.544,1.302l-28.382,38.979
			l-14.218-17.387c-0.573-0.703-1.392-1.104-2.239-1.104c-0.914,0-1.757,0.447-2.328,1.231l-6.042,8.293
			c-0.955,1.315-0.899,3.252,0.129,4.509l23.086,28.216c0.573,0.705,1.392,1.108,2.239,1.108c0.914,0,1.761-0.455,2.328-1.231
			l29.669-40.749c7.979,15.609,3.842,34.922-10.193,45.854c-6.534,5.096-14.361,7.797-22.632,7.797
			c-11.465,0-22.083-5.186-29.123-14.218c-6.048-7.757-8.706-17.421-7.495-27.205c1.218-9.788,6.157-18.509,13.914-24.553
			c6.543-5.1,14.375-7.793,22.642-7.793c5.055,0,9.952,0.993,14.544,2.953c1.494,0.642,3.408,0.117,4.349-1.177l4.79-6.577
			c0.537-0.743,0.72-1.659,0.511-2.511c-0.209-0.843-0.802-1.559-1.604-1.951c-7.046-3.443-14.644-5.189-22.59-5.189
			C338.29,150.775,327.387,154.528,318.284,161.619"></path>
		</defs>
		<clipPath id="SVGID_2_">
			<path d="M318.284,161.619c-22.325,17.404-26.33,49.718-8.932,72.047c9.795,12.568,24.564,19.776,40.519,19.776
			c11.518,0,22.417-3.745,31.519-10.845c10.797-8.413,17.677-20.554,19.371-34.173c1.689-13.623-2.015-27.076-10.432-37.871
			c-2.172-2.789-4.634-5.355-7.312-7.625c-0.563-0.485-1.283-0.748-2.019-0.748c-0.996,0-1.943,0.485-2.544,1.302l-28.382,38.979
			l-14.218-17.387c-0.573-0.703-1.392-1.104-2.239-1.104c-0.914,0-1.757,0.447-2.328,1.231l-6.042,8.293
			c-0.955,1.315-0.899,3.252,0.129,4.509l23.086,28.216c0.573,0.705,1.392,1.108,2.239,1.108c0.914,0,1.761-0.455,2.328-1.231
			l29.669-40.749c7.979,15.609,3.842,34.922-10.193,45.854c-6.534,5.096-14.361,7.797-22.632,7.797
			c-11.465,0-22.083-5.186-29.123-14.218c-6.048-7.757-8.706-17.421-7.495-27.205c1.218-9.788,6.157-18.509,13.914-24.553
			c6.543-5.1,14.375-7.793,22.642-7.793c5.055,0,9.952,0.993,14.544,2.953c1.494,0.642,3.408,0.117,4.349-1.177l4.79-6.577
			c0.537-0.743,0.72-1.659,0.511-2.511c-0.209-0.843-0.802-1.559-1.604-1.951c-7.046-3.443-14.644-5.189-22.59-5.189
			C338.29,150.775,327.387,154.528,318.284,161.619" overflow="visible" transform="matrix(1, 0, 0, 1, 0, 0)"></path>
		</clipPath>
		<linearGradient id="SVGID_3_" gradientUnits="userSpaceOnUse" x1="-96.3184" y1="806.7168" x2="-92.4986" y2="806.7168" gradientTransform="matrix(-23.2685 23.1203 23.1203 23.2685 -20492.9141 -16394.2812)">
			<stop offset="0" style="stop-color:#E83662"></stop>
			<stop offset="1" style="stop-color:#9B1D82"></stop>
		</linearGradient>
		<path fill="#941C80" d="M 230.198 87.958 C 230.198 87.281 230.377 86.74 230.734 86.333 C 231.088 85.93 231.62 85.727 232.334 85.727 L 263.32 85.727 C 265.555 85.727 267.657 86.037 269.627 86.65 C 271.599 87.262 273.41 88.111 275.061 89.194 C 276.707 90.276 278.197 91.57 279.523 93.072 C 280.844 94.577 281.972 96.2 282.892 97.946 C 283.817 99.692 284.517 101.526 285.002 103.453 C 285.487 105.374 285.731 107.326 285.731 109.293 C 285.731 112.205 285.203 115.05 284.153 117.831 C 283.103 120.609 281.605 123.084 279.669 125.251 C 277.727 127.417 275.398 129.174 272.685 130.512 C 269.969 131.855 266.958 132.539 263.662 132.575 L 248.968 132.575 L 248.968 155.658 C 248.968 157.048 248.224 157.743 246.741 157.743 L 232.334 157.743 C 231.689 157.743 231.168 157.575 230.782 157.234 C 230.394 156.895 230.198 156.37 230.198 155.658 L 230.198 87.958 Z M 266.717 109.199 C 266.717 108.229 266.549 107.257 266.209 106.287 C 265.868 105.317 265.376 104.454 264.727 103.698 C 264.085 102.933 263.298 102.31 262.376 101.825 C 261.456 101.34 260.417 101.099 259.248 101.099 L 248.968 101.099 L 248.968 117.298 L 259.248 117.298 C 260.417 117.298 261.464 117.065 262.404 116.594 C 263.341 116.124 264.122 115.52 264.753 114.775 C 265.383 114.035 265.869 113.174 266.21 112.205 C 266.549 111.234 266.717 110.234 266.717 109.199"></path>
		<path fill="#941C80" d="M 306.679 87.618 C 306.709 87.428 306.817 87.213 306.992 86.988 C 307.168 86.762 307.389 86.553 307.649 86.358 C 307.908 86.164 308.181 86.011 308.476 85.895 C 308.765 85.785 309.041 85.727 309.297 85.727 L 321.713 85.727 C 322.267 85.727 322.733 85.895 323.119 86.236 C 323.507 86.576 323.798 86.874 323.994 87.13 L 325.204 89.897 L 350.667 155.564 C 350.923 156.21 350.876 156.737 350.521 157.14 C 350.161 157.543 349.551 157.744 348.68 157.744 L 334.758 157.744 C 334.018 157.744 333.439 157.61 333.038 157.332 C 332.629 157.058 332.316 156.599 332.09 155.95 C 331.444 154.299 330.814 152.663 330.2 151.029 C 329.584 149.393 328.969 147.755 328.353 146.108 L 302.605 146.108 C 301.989 147.755 301.366 149.393 300.736 151.029 C 300.106 152.663 299.485 154.299 298.869 155.95 C 298.449 157.149 297.623 157.744 296.397 157.744 L 282.089 157.744 C 281.473 157.744 280.966 157.583 280.561 157.259 C 280.156 156.938 280.083 156.453 280.343 155.804 L 306.679 87.618 Z M 315.504 108.375 C 314.892 110.024 314.269 111.802 313.638 113.708 C 313.01 115.618 312.387 117.54 311.771 119.48 C 311.156 121.421 310.533 123.335 309.904 125.227 C 309.274 127.117 308.651 128.891 308.039 130.539 L 322.923 130.539 L 315.504 108.375 Z"></path>
		<path fill="#941C80" d="M 372.175 112.303 L 383.882 87.234 C 384.08 86.84 384.24 86.561 384.367 86.381 C 384.502 86.202 384.628 86.075 384.759 85.991 C 384.886 85.91 385.025 85.862 385.166 85.845 C 385.315 85.83 385.486 85.793 385.681 85.727 L 404.35 85.727 C 404.574 85.727 404.76 85.8 404.91 85.945 C 405.052 86.089 405.127 86.262 405.127 86.449 C 405.127 86.809 404.902 87.214 404.447 87.667 L 381.466 128.355 L 381.466 155.463 C 381.466 156.983 380.72 157.744 379.235 157.744 L 364.726 157.744 C 364.08 157.744 363.58 157.54 363.226 157.136 C 362.871 156.735 362.695 156.174 362.695 155.463 L 362.695 128.26 L 339.758 87.669 C 339.333 87.246 339.128 86.841 339.128 86.451 C 339.128 86.264 339.188 86.091 339.318 85.947 C 339.449 85.801 339.624 85.729 339.85 85.729 L 358.523 85.729 C 358.749 85.794 358.929 85.832 359.054 85.847 C 359.189 85.864 359.317 85.912 359.444 85.993 C 359.574 86.077 359.699 86.203 359.834 86.383 C 359.963 86.562 360.14 86.842 360.366 87.236 L 372.175 112.303 Z"></path>
		<path fill="#941C80" d="M 229.834 169.794 C 229.834 169.212 230.009 168.709 230.369 168.289 C 230.72 167.87 231.255 167.659 231.97 167.659 L 247.824 167.659 C 248.28 167.659 248.745 167.773 249.235 167.998 C 249.72 168.224 250.136 168.61 250.49 169.164 C 254.598 175.788 258.674 182.32 262.713 188.755 C 266.755 195.189 270.846 201.721 274.984 208.349 L 274.984 169.504 C 275.114 168.921 275.374 168.469 275.76 168.144 C 276.15 167.82 276.601 167.659 277.12 167.659 L 290.942 167.659 C 291.621 167.659 292.183 167.846 292.638 168.217 C 293.094 168.592 293.319 169.114 293.319 169.795 L 293.319 237.789 C 293.319 238.435 293.123 238.912 292.737 239.218 C 292.347 239.529 291.817 239.677 291.136 239.677 L 275.664 239.677 C 275.243 239.677 274.873 239.531 274.549 239.24 C 274.224 238.953 273.883 238.561 273.532 238.08 C 269.234 230.966 264.977 223.934 260.776 216.986 C 256.573 210.032 252.305 202.998 247.974 195.884 L 247.974 237.542 C 247.974 238.255 247.81 238.788 247.485 239.146 C 247.164 239.5 246.582 239.675 245.739 239.675 L 231.97 239.675 C 231.22 239.675 230.687 239.474 230.345 239.071 C 230.006 238.669 229.834 238.176 229.834 237.591 L 229.834 169.794 Z"></path>
		<path fill="#941C80" d="M 425.044 238.657 C 424.72 238.109 424.414 237.542 424.123 236.96 C 423.832 236.378 423.574 235.8 423.347 235.214 C 419.176 224.223 415.024 213.329 410.882 202.528 C 406.745 191.731 402.589 180.832 398.421 169.841 C 398.421 169.677 398.396 169.535 398.351 169.406 C 398.298 169.275 398.276 169.149 398.276 169.016 C 398.276 168.111 398.873 167.66 400.071 167.66 L 415.684 167.66 C 416.915 167.66 417.754 168.272 418.206 169.501 L 433.047 213.683 L 446.769 169.501 C 447.224 168.272 448.112 167.66 449.44 167.66 L 465.199 167.66 C 465.945 167.66 466.468 167.798 466.777 168.069 C 467.084 168.347 467.236 168.707 467.236 169.166 C 467.236 169.421 467.221 169.601 467.188 169.696 L 467.188 169.842 L 458.558 194.575 L 465.057 213.636 L 480.768 169.503 C 481.219 168.274 482.115 167.662 483.435 167.662 L 498.712 167.662 C 499.455 167.662 499.982 167.8 500.283 168.071 C 500.589 168.349 500.746 168.709 500.746 169.168 C 500.746 169.423 500.73 169.603 500.701 169.698 L 500.701 169.844 C 498.5 175.537 496.254 181.21 493.959 186.864 C 491.665 192.525 489.359 198.183 487.046 203.841 C 484.737 209.499 482.435 215.168 480.167 220.839 C 477.884 226.51 475.66 232.181 473.496 237.84 C 473.361 238.194 473.07 238.59 472.619 239.027 C 472.168 239.464 471.616 239.679 470.967 239.679 L 470.825 239.679 L 459.088 239.679 C 458.379 239.679 457.838 239.545 457.461 239.269 C 457.096 238.993 456.827 238.627 456.663 238.18 L 449 218 C 447.902 220.94 446.821 223.828 445.754 226.655 C 444.687 229.491 443.62 232.371 442.553 235.314 C 442.389 235.766 442.206 236.244 441.993 236.744 C 441.784 237.244 441.53 237.714 441.243 238.146 C 440.952 238.586 440.62 238.948 440.247 239.236 C 439.878 239.534 439.448 239.675 438.964 239.675 L 438.815 239.675 L 427.082 239.675 C 426.048 239.676 425.369 239.337 425.044 238.657"></path>
		<polygon clip-path="url(#SVGID_2_)" fill="url(#SVGID_3_)" points="453.782,202.438 346.849,308.688 240.622,201.782 
		347.556,95.529 	"></polygon>
	</g>
</svg>